<?xml version="1.0" encoding="UTF-8" standalone="no"?>
<!DOCTYPE svg PUBLIC "-//W3C//DTD SVG 1.1//EN"
 "http://www.w3.org/Graphics/SVG/1.1/DTD/svg11.dtd">
<!-- Generated by graphviz version 2.47.0 (20210316.0004)
 -->
<!-- Title: dependencies Pages: 1 -->
<svg width="504pt" height="284pt"
 viewBox="0.00 0.00 504.00 284.00" xmlns="http://www.w3.org/2000/svg" xmlns:xlink="http://www.w3.org/1999/xlink">
<g id="graph0" class="graph" transform="scale(1 1) rotate(0) translate(4 280)">
<title>dependencies</title>
<polygon fill="white" stroke="transparent" points="-4,4 -4,-280 500,-280 500,4 -4,4"/>
<text text-anchor="start" x="227.01" y="-42.4" font-family="Times-12" font-weight="bold" font-size="14.00">Legend</text>
<polygon fill="#ffffb3" stroke="transparent" points="14,-10 14,-30 34,-30 34,-10 14,-10"/>
<text text-anchor="start" x="37.63" y="-15.4" font-family="Times-12" font-size="14.00"> &#160;Declarations</text>
<polygon fill="#8dd3c7" stroke="transparent" points="127,-10 127,-30 147,-30 147,-10 127,-10"/>
<text text-anchor="start" x="150.73" y="-15.4" font-family="Times-12" font-size="14.00"> &#160;Module</text>
<polygon fill="#80b1d3" stroke="transparent" points="213,-10 213,-30 233,-30 233,-10 213,-10"/>
<text text-anchor="start" x="236.78" y="-15.4" font-family="Times-12" font-size="14.00"> &#160;Bootstrap</text>
<polygon fill="#fdb462" stroke="transparent" points="310,-10 310,-30 330,-30 330,-10 310,-10"/>
<text text-anchor="start" x="333.67" y="-15.4" font-family="Times-12" font-size="14.00"> &#160;Providers</text>
<polygon fill="#fb8072" stroke="transparent" points="406,-10 406,-30 426,-30 426,-10 406,-10"/>
<text text-anchor="start" x="429.73" y="-15.4" font-family="Times-12" font-size="14.00"> &#160;Exports</text>
<g id="clust1" class="cluster">
<title>cluster_SharedModule</title>
<polygon fill="none" stroke="black" stroke-dasharray="1,5" points="80,-70 80,-268 416,-268 416,-70 80,-70"/>
</g>
<g id="clust2" class="cluster">
<title>cluster_SharedModule_declarations</title>
<polygon fill="none" stroke="black" points="92,-78 92,-130 405,-130 405,-78 92,-78"/>
</g>
<g id="clust6" class="cluster">
<title>cluster_SharedModule_exports</title>
<polygon fill="none" stroke="black" points="88,-208 88,-260 408,-260 408,-208 88,-208"/>
</g>
<!-- BotaoComponent -->
<g id="node1" class="node">
<title>BotaoComponent</title>
<polygon fill="#ffffb3" stroke="black" points="397.27,-122 282.73,-122 282.73,-86 397.27,-86 397.27,-122"/>
<text text-anchor="middle" x="340" y="-99.8" font-family="Times,serif" font-size="14.00">BotaoComponent</text>
</g>
<!-- SharedModule -->
<g id="node3" class="node">
<title>SharedModule</title>
<polygon fill="#8dd3c7" stroke="black" points="232.42,-187 229.42,-191 208.42,-191 205.42,-187 133.58,-187 133.58,-151 232.42,-151 232.42,-187"/>
<text text-anchor="middle" x="183" y="-164.8" font-family="Times,serif" font-size="14.00">SharedModule</text>
</g>
<!-- BotaoComponent&#45;&gt;SharedModule -->
<g id="edge1" class="edge">
<title>BotaoComponent&#45;&gt;SharedModule</title>
<path fill="none" stroke="black" d="M359.13,-122.02C359.13,-139.37 359.13,-163 359.13,-163 359.13,-163 242.53,-163 242.53,-163"/>
<polygon fill="black" stroke="black" points="242.53,-159.5 232.53,-163 242.53,-166.5 242.53,-159.5"/>
</g>
<!-- SliderCarouselComponent -->
<g id="node2" class="node">
<title>SliderCarouselComponent</title>
<polygon fill="#ffffb3" stroke="black" points="264.03,-122 99.97,-122 99.97,-86 264.03,-86 264.03,-122"/>
<text text-anchor="middle" x="182" y="-99.8" font-family="Times,serif" font-size="14.00">SliderCarouselComponent</text>
</g>
<!-- SliderCarouselComponent&#45;&gt;SharedModule -->
<g id="edge2" class="edge">
<title>SliderCarouselComponent&#45;&gt;SharedModule</title>
<path fill="none" stroke="black" d="M183,-122.11C183,-122.11 183,-140.99 183,-140.99"/>
<polygon fill="black" stroke="black" points="179.5,-140.99 183,-150.99 186.5,-140.99 179.5,-140.99"/>
</g>
<!-- BotaoComponent  -->
<g id="node4" class="node">
<title>BotaoComponent </title>
<polygon fill="#fb8072" stroke="black" points="400.27,-252 281.73,-252 281.73,-216 400.27,-216 400.27,-252"/>
<text text-anchor="middle" x="341" y="-229.8" font-family="Times,serif" font-size="14.00">BotaoComponent </text>
</g>
<!-- SharedModule&#45;&gt;BotaoComponent  -->
<g id="edge3" class="edge">
<title>SharedModule&#45;&gt;BotaoComponent </title>
<path fill="none" stroke="black" stroke-dasharray="5,2" d="M232.39,-175C271.95,-175 320.87,-175 320.87,-175 320.87,-175 320.87,-205.98 320.87,-205.98"/>
<polygon fill="black" stroke="black" points="317.37,-205.98 320.87,-215.98 324.37,-205.98 317.37,-205.98"/>
</g>
<!-- SliderCarouselComponent  -->
<g id="node5" class="node">
<title>SliderCarouselComponent </title>
<polygon fill="#fb8072" stroke="black" points="264.03,-252 95.97,-252 95.97,-216 264.03,-216 264.03,-252"/>
<text text-anchor="middle" x="180" y="-229.8" font-family="Times,serif" font-size="14.00">SliderCarouselComponent </text>
</g>
<!-- SharedModule&#45;&gt;SliderCarouselComponent  -->
<g id="edge4" class="edge">
<title>SharedModule&#45;&gt;SliderCarouselComponent </title>
<path fill="none" stroke="black" stroke-dasharray="5,2" d="M183,-187.11C183,-187.11 183,-205.99 183,-205.99"/>
<polygon fill="black" stroke="black" points="179.5,-205.99 183,-215.99 186.5,-205.99 179.5,-205.99"/>
</g>
</g>
</svg>
