<svg width="34" height="34" viewBox="0 0 34 34" fill="none" xmlns="http://www.w3.org/2000/svg">
<rect width="34" height="34" rx="6" fill="#EDEDED"/>
<path d="M17 9C12.592 9 9 12.592 9 17C9 21.408 12.592 25 17 25C21.408 25 25 21.408 25 17C25 12.592 21.408 9 17 9ZM20.48 19.856C20.368 20.048 20.168 20.152 19.96 20.152C19.856 20.152 19.752 20.128 19.656 20.064L17.176 18.584C16.56 18.216 16.104 17.408 16.104 16.696V13.416C16.104 13.088 16.376 12.816 16.704 12.816C17.032 12.816 17.304 13.088 17.304 13.416V16.696C17.304 16.984 17.544 17.408 17.792 17.552L20.272 19.032C20.56 19.2 20.656 19.568 20.48 19.856Z" fill="#3F3F3F"/>
</svg>
