<svg width="34" height="34" viewBox="0 0 34 34" fill="none" xmlns="http://www.w3.org/2000/svg">
<rect width="34" height="34" rx="6" fill="#EDEDED"/>
<path d="M25.7628 18.2134C25.5289 17.4396 25.1419 16.7647 24.629 16.2158C23.9721 15.4689 23.0993 14.956 22.1185 14.731C21.6236 12.4814 20.2378 10.8617 18.2672 10.2588C16.1255 9.59294 13.642 10.2408 12.0853 11.8695C10.7175 13.3003 10.2676 15.2709 10.7985 17.3676C8.99882 17.8085 8.10798 19.3112 8.009 20.742C8 20.841 8 20.9309 8 21.0209C8 22.7126 9.1068 24.6113 11.5724 24.7912H20.9127C22.1905 24.7912 23.4142 24.3143 24.3501 23.4595C25.8168 22.1727 26.3567 20.1661 25.7628 18.2134Z" fill="#3F3F3F"/>
</svg>
