<?xml version="1.0" encoding="UTF-8" standalone="no"?>
<!DOCTYPE svg PUBLIC "-//W3C//DTD SVG 1.1//EN"
 "http://www.w3.org/Graphics/SVG/1.1/DTD/svg11.dtd">
<!-- Generated by graphviz version 2.47.0 (20210316.0004)
 -->
<!-- Title: dependencies Pages: 1 -->
<svg width="1406pt" height="290pt"
 viewBox="0.00 0.00 1406.00 290.00" xmlns="http://www.w3.org/2000/svg" xmlns:xlink="http://www.w3.org/1999/xlink">
<g id="graph0" class="graph" transform="scale(1 1) rotate(0) translate(4 286)">
<title>dependencies</title>
<polygon fill="white" stroke="transparent" points="-4,4 -4,-286 1402,-286 1402,4 -4,4"/>
<text text-anchor="start" x="678.01" y="-42.4" font-family="Times-12" font-weight="bold" font-size="14.00">Legend</text>
<polygon fill="#ffffb3" stroke="transparent" points="465,-10 465,-30 485,-30 485,-10 465,-10"/>
<text text-anchor="start" x="488.63" y="-15.4" font-family="Times-12" font-size="14.00"> &#160;Declarations</text>
<polygon fill="#8dd3c7" stroke="transparent" points="578,-10 578,-30 598,-30 598,-10 578,-10"/>
<text text-anchor="start" x="601.73" y="-15.4" font-family="Times-12" font-size="14.00"> &#160;Module</text>
<polygon fill="#80b1d3" stroke="transparent" points="664,-10 664,-30 684,-30 684,-10 664,-10"/>
<text text-anchor="start" x="687.78" y="-15.4" font-family="Times-12" font-size="14.00"> &#160;Bootstrap</text>
<polygon fill="#fdb462" stroke="transparent" points="761,-10 761,-30 781,-30 781,-10 761,-10"/>
<text text-anchor="start" x="784.67" y="-15.4" font-family="Times-12" font-size="14.00"> &#160;Providers</text>
<polygon fill="#fb8072" stroke="transparent" points="857,-10 857,-30 877,-30 877,-10 857,-10"/>
<text text-anchor="start" x="880.73" y="-15.4" font-family="Times-12" font-size="14.00"> &#160;Exports</text>
<g id="clust1" class="cluster">
<title>cluster_AppModule</title>
<polygon fill="none" stroke="black" stroke-dasharray="1,5" points="8,-70 8,-274 725,-274 725,-70 8,-70"/>
</g>
<g id="clust2" class="cluster">
<title>cluster_AppModule_declarations</title>
<polygon fill="none" stroke="black" points="16,-78 16,-130 448,-130 448,-78 16,-78"/>
</g>
<g id="clust6" class="cluster">
<title>cluster_AppModule_imports</title>
<polygon fill="none" stroke="black" points="456,-78 456,-130 717,-130 717,-78 456,-78"/>
</g>
<g id="clust8" class="cluster">
<title>cluster_AppModule_bootstrap</title>
<polygon fill="none" stroke="black" points="325,-214 325,-266 449,-266 449,-214 325,-214"/>
</g>
<g id="clust16" class="cluster">
<title>cluster_SharedModule</title>
<polygon fill="none" stroke="black" stroke-dasharray="1,5" points="733,-138 733,-206 1390,-206 1390,-138 733,-138"/>
</g>
<g id="clust17" class="cluster">
<title>cluster_SharedModule_declarations</title>
<polygon fill="none" stroke="black" points="1069,-146 1069,-198 1382,-198 1382,-146 1069,-146"/>
</g>
<g id="clust21" class="cluster">
<title>cluster_SharedModule_exports</title>
<polygon fill="none" stroke="black" points="741,-146 741,-198 1061,-198 1061,-146 741,-146"/>
</g>
<!-- AppComponent -->
<g id="node1" class="node">
<title>AppComponent</title>
<polygon fill="#ffffb3" stroke="black" points="439.94,-122 334.06,-122 334.06,-86 439.94,-86 439.94,-122"/>
<text text-anchor="middle" x="387" y="-99.8" font-family="Times,serif" font-size="14.00">AppComponent</text>
</g>
<!-- AppModule -->
<g id="node4" class="node">
<title>AppModule</title>
<polygon fill="#8dd3c7" stroke="black" points="428.66,-190 425.66,-194 404.66,-194 401.66,-190 345.34,-190 345.34,-154 428.66,-154 428.66,-190"/>
<text text-anchor="middle" x="387" y="-167.8" font-family="Times,serif" font-size="14.00">AppModule</text>
</g>
<!-- AppComponent&#45;&gt;AppModule -->
<g id="edge1" class="edge">
<title>AppComponent&#45;&gt;AppModule</title>
<path fill="none" stroke="black" d="M387,-122.22C387,-122.22 387,-143.73 387,-143.73"/>
<polygon fill="black" stroke="black" points="383.5,-143.73 387,-153.73 390.5,-143.73 383.5,-143.73"/>
</g>
<!-- DetailsScreenComponent -->
<g id="node2" class="node">
<title>DetailsScreenComponent</title>
<polygon fill="#ffffb3" stroke="black" points="316.57,-122 157.43,-122 157.43,-86 316.57,-86 316.57,-122"/>
<text text-anchor="middle" x="237" y="-99.8" font-family="Times,serif" font-size="14.00">DetailsScreenComponent</text>
</g>
<!-- DetailsScreenComponent&#45;&gt;AppModule -->
<g id="edge2" class="edge">
<title>DetailsScreenComponent&#45;&gt;AppModule</title>
<path fill="none" stroke="black" d="M237,-122.27C237,-140.56 237,-166 237,-166 237,-166 335.22,-166 335.22,-166"/>
<polygon fill="black" stroke="black" points="335.22,-169.5 345.22,-166 335.22,-162.5 335.22,-169.5"/>
</g>
<!-- HomeComponent -->
<g id="node3" class="node">
<title>HomeComponent</title>
<polygon fill="#ffffb3" stroke="black" points="139.55,-122 24.45,-122 24.45,-86 139.55,-86 139.55,-122"/>
<text text-anchor="middle" x="82" y="-99.8" font-family="Times,serif" font-size="14.00">HomeComponent</text>
</g>
<!-- HomeComponent&#45;&gt;AppModule -->
<g id="edge3" class="edge">
<title>HomeComponent&#45;&gt;AppModule</title>
<path fill="none" stroke="black" d="M82,-122.29C82,-144.21 82,-178 82,-178 82,-178 335.23,-178 335.23,-178"/>
<polygon fill="black" stroke="black" points="335.23,-181.5 345.23,-178 335.23,-174.5 335.23,-181.5"/>
</g>
<!-- AppComponent  -->
<g id="node7" class="node">
<title>AppComponent </title>
<polygon fill="#80b1d3" stroke="black" points="441.44,-258 332.56,-258 332.56,-222 441.44,-222 441.44,-258"/>
<text text-anchor="middle" x="387" y="-235.8" font-family="Times,serif" font-size="14.00">AppComponent </text>
</g>
<!-- AppModule&#45;&gt;AppComponent  -->
<g id="edge6" class="edge">
<title>AppModule&#45;&gt;AppComponent </title>
<path fill="none" stroke="black" stroke-dasharray="1,5" d="M387,-190.22C387,-190.22 387,-211.73 387,-211.73"/>
<polygon fill="black" stroke="black" points="383.5,-211.73 387,-221.73 390.5,-211.73 383.5,-211.73"/>
</g>
<!-- AppRoutingModule -->
<g id="node5" class="node">
<title>AppRoutingModule</title>
<polygon fill="#8dd3c7" stroke="black" points="592.27,-122 589.27,-126 568.27,-126 565.27,-122 463.73,-122 463.73,-86 592.27,-86 592.27,-122"/>
<text text-anchor="middle" x="528" y="-99.8" font-family="Times,serif" font-size="14.00">AppRoutingModule</text>
</g>
<!-- AppRoutingModule&#45;&gt;AppModule -->
<g id="edge4" class="edge">
<title>AppRoutingModule&#45;&gt;AppModule</title>
<path fill="none" stroke="black" d="M528,-122.22C528,-142.37 528,-172 528,-172 528,-172 438.92,-172 438.92,-172"/>
<polygon fill="black" stroke="black" points="438.92,-168.5 428.92,-172 438.92,-175.5 438.92,-168.5"/>
</g>
<!-- SharedModule -->
<g id="node6" class="node">
<title>SharedModule</title>
<polygon fill="#8dd3c7" stroke="black" points="709.42,-122 706.42,-126 685.42,-126 682.42,-122 610.58,-122 610.58,-86 709.42,-86 709.42,-122"/>
<text text-anchor="middle" x="660" y="-99.8" font-family="Times,serif" font-size="14.00">SharedModule</text>
</g>
<!-- SharedModule&#45;&gt;AppModule -->
<g id="edge5" class="edge">
<title>SharedModule&#45;&gt;AppModule</title>
<path fill="none" stroke="black" d="M643.6,-122.25C643.6,-145.02 643.6,-181 643.6,-181 643.6,-181 438.8,-181 438.8,-181"/>
<polygon fill="black" stroke="black" points="438.8,-177.5 428.8,-181 438.8,-184.5 438.8,-177.5"/>
</g>
<!-- BotaoComponent  -->
<g id="node10" class="node">
<title>BotaoComponent </title>
<polygon fill="#fb8072" stroke="black" points="1053.27,-190 934.73,-190 934.73,-154 1053.27,-154 1053.27,-190"/>
<text text-anchor="middle" x="994" y="-167.8" font-family="Times,serif" font-size="14.00">BotaoComponent </text>
</g>
<!-- SharedModule&#45;&gt;BotaoComponent  -->
<g id="edge9" class="edge">
<title>SharedModule&#45;&gt;BotaoComponent </title>
<path fill="none" stroke="black" stroke-dasharray="5,2" d="M709.28,-113C802.19,-113 994,-113 994,-113 994,-113 994,-143.98 994,-143.98"/>
<polygon fill="black" stroke="black" points="990.5,-143.98 994,-153.98 997.5,-143.98 990.5,-143.98"/>
</g>
<!-- SliderCarouselComponent  -->
<g id="node11" class="node">
<title>SliderCarouselComponent </title>
<polygon fill="#fb8072" stroke="black" points="917.03,-190 748.97,-190 748.97,-154 917.03,-154 917.03,-190"/>
<text text-anchor="middle" x="833" y="-167.8" font-family="Times,serif" font-size="14.00">SliderCarouselComponent </text>
</g>
<!-- SharedModule&#45;&gt;SliderCarouselComponent  -->
<g id="edge10" class="edge">
<title>SharedModule&#45;&gt;SliderCarouselComponent </title>
<path fill="none" stroke="black" stroke-dasharray="5,2" d="M676.4,-122.02C676.4,-139.37 676.4,-163 676.4,-163 676.4,-163 738.74,-163 738.74,-163"/>
<polygon fill="black" stroke="black" points="738.74,-166.5 748.74,-163 738.74,-159.5 738.74,-166.5"/>
</g>
<!-- BotaoComponent -->
<g id="node8" class="node">
<title>BotaoComponent</title>
<polygon fill="#ffffb3" stroke="black" points="1374.27,-190 1259.73,-190 1259.73,-154 1374.27,-154 1374.27,-190"/>
<text text-anchor="middle" x="1317" y="-167.8" font-family="Times,serif" font-size="14.00">BotaoComponent</text>
</g>
<!-- BotaoComponent&#45;&gt;SharedModule -->
<g id="edge7" class="edge">
<title>BotaoComponent&#45;&gt;SharedModule</title>
<path fill="none" stroke="black" d="M1317,-153.75C1317,-130.98 1317,-95 1317,-95 1317,-95 719.38,-95 719.38,-95"/>
<polygon fill="black" stroke="black" points="719.38,-91.5 709.38,-95 719.38,-98.5 719.38,-91.5"/>
</g>
<!-- SliderCarouselComponent -->
<g id="node9" class="node">
<title>SliderCarouselComponent</title>
<polygon fill="#ffffb3" stroke="black" points="1241.03,-190 1076.97,-190 1076.97,-154 1241.03,-154 1241.03,-190"/>
<text text-anchor="middle" x="1159" y="-167.8" font-family="Times,serif" font-size="14.00">SliderCarouselComponent</text>
</g>
<!-- SliderCarouselComponent&#45;&gt;SharedModule -->
<g id="edge8" class="edge">
<title>SliderCarouselComponent&#45;&gt;SharedModule</title>
<path fill="none" stroke="black" d="M1159,-153.78C1159,-133.63 1159,-104 1159,-104 1159,-104 719.21,-104 719.21,-104"/>
<polygon fill="black" stroke="black" points="719.21,-100.5 709.21,-104 719.21,-107.5 719.21,-100.5"/>
</g>
</g>
</svg>
